<?xml version="1.0" standalone="no"?>
<!DOCTYPE svg PUBLIC "-//W3C//DTD SVG 20010904//EN"
 "http://www.w3.org/TR/2001/REC-SVG-20010904/DTD/svg10.dtd">
<svg version="1.0" xmlns="http://www.w3.org/2000/svg"
 width="900.000000pt" height="900.000000pt" viewBox="0 0 900.000000 900.000000"
 preserveAspectRatio="xMidYMid meet">

<g transform="translate(0.000000,900.000000) scale(0.100000,-0.100000)"
fill="#000000" stroke="none">
<path d="M4445 8745 c-6 -3 -82 -9 -170 -15 -245 -14 -397 -34 -600 -76 -44
-9 -97 -18 -118 -21 -20 -3 -40 -9 -43 -14 -3 -5 -18 -9 -34 -9 -16 0 -31 -4
-34 -9 -3 -4 -25 -11 -48 -15 -49 -8 -382 -117 -445 -147 -24 -10 -45 -19 -49
-19 -3 0 -30 -11 -60 -25 -30 -14 -57 -25 -60 -25 -8 0 -277 -135 -332 -167
-272 -156 -497 -312 -732 -509 -104 -87 -392 -375 -449 -449 -14 -18 -60 -76
-101 -127 -115 -142 -127 -159 -225 -304 -74 -110 -83 -125 -91 -146 -3 -10
-10 -18 -15 -18 -5 0 -9 -5 -9 -10 0 -6 -11 -27 -24 -48 -40 -64 -191 -363
-225 -447 -18 -44 -38 -93 -46 -110 -7 -16 -23 -57 -35 -90 -12 -33 -25 -69
-30 -80 -18 -42 -90 -278 -90 -296 0 -10 -4 -20 -9 -23 -5 -3 -11 -23 -15 -43
-3 -21 -8 -47 -10 -58 -5 -20 -16 -68 -36 -162 -16 -77 -41 -233 -46 -293 -3
-30 -8 -62 -11 -70 -11 -27 -13 -52 -18 -390 -7 -388 1 -532 50 -830 8 -52 18
-111 21 -130 3 -19 9 -44 13 -55 5 -11 16 -56 26 -100 9 -44 20 -91 25 -105 4
-14 15 -54 25 -90 9 -36 21 -73 26 -82 5 -10 9 -27 9 -37 0 -11 4 -22 9 -25 4
-3 11 -20 15 -38 7 -36 85 -244 121 -323 90 -197 187 -386 249 -483 14 -23 26
-44 26 -48 0 -3 13 -24 29 -47 16 -23 46 -69 67 -102 21 -33 41 -62 45 -65 4
-3 19 -25 35 -50 40 -63 211 -275 314 -390 95 -106 223 -234 326 -326 127
-112 451 -362 498 -384 6 -3 37 -22 70 -43 234 -153 655 -358 851 -417 22 -6
49 -15 60 -20 47 -21 156 -53 415 -120 57 -15 245 -51 365 -70 284 -45 973
-45 1220 -1 33 6 76 13 95 15 88 12 167 27 194 36 16 6 42 10 57 10 15 0 30 4
33 9 3 5 20 11 38 14 45 8 150 32 168 39 8 3 74 25 145 48 151 48 316 109 330
121 5 5 15 9 21 9 7 0 66 26 131 57 65 32 120 58 123 58 3 0 25 12 50 27 25
14 74 41 110 60 102 55 298 177 380 237 41 31 80 58 86 61 6 3 25 16 42 30
341 269 624 554 855 864 74 99 203 290 233 346 10 19 22 37 25 40 9 8 76 132
138 255 73 143 191 413 191 434 0 7 9 30 20 53 11 23 23 57 26 77 4 20 10 41
14 46 4 6 15 39 24 75 9 36 21 74 26 85 5 11 11 31 14 45 5 26 41 180 56 240
13 51 41 227 60 375 5 39 11 86 14 105 3 19 8 145 11 280 8 294 -5 519 -45
775 -6 39 -13 86 -15 105 -11 75 -58 282 -85 375 -5 17 -16 55 -23 85 -15 55
-71 228 -86 265 -5 11 -16 40 -26 65 -10 25 -21 54 -26 65 -4 11 -15 38 -24
60 -44 111 -181 387 -249 500 -63 107 -160 258 -198 310 -20 27 -47 65 -60 83
-13 18 -68 88 -123 154 -55 67 -119 144 -142 172 -54 67 -299 304 -394 383
-96 80 -162 134 -185 153 -30 24 -264 190 -269 190 -2 0 -30 17 -62 38 -99 66
-273 162 -428 236 -135 66 -180 86 -245 111 -25 10 -63 25 -85 35 -22 9 -101
36 -175 60 -74 23 -144 46 -155 51 -11 4 -40 12 -65 17 -25 6 -70 17 -100 25
-96 26 -281 64 -400 82 -187 28 -717 63 -745 50z m410 -44 c94 -7 195 -16 225
-21 30 -5 89 -14 130 -20 64 -10 130 -22 240 -43 114 -23 237 -57 435 -122
140 -46 198 -68 380 -143 171 -71 497 -254 710 -400 353 -242 700 -573 977
-933 80 -104 232 -330 278 -414 19 -33 42 -72 51 -86 28 -41 153 -295 199
-404 23 -55 48 -113 55 -130 12 -27 65 -177 99 -280 28 -84 81 -284 96 -360 7
-33 16 -80 21 -105 23 -115 33 -183 60 -410 17 -134 17 -695 1 -805 -6 -44
-17 -123 -23 -175 -32 -261 -126 -654 -199 -835 -5 -11 -25 -65 -45 -120 -39
-104 -54 -138 -112 -265 -164 -356 -373 -680 -642 -999 -74 -87 -371 -384
-450 -451 -331 -277 -591 -446 -951 -621 -212 -103 -419 -183 -630 -244 -433
-126 -784 -176 -1225 -176 -217 1 -243 2 -440 22 -285 29 -615 99 -885 189
-933 309 -1725 920 -2259 1741 -205 316 -325 559 -457 928 -91 257 -176 611
-199 836 -3 33 -10 87 -15 120 -6 33 -14 148 -19 255 -19 379 17 771 109 1180
77 345 237 752 436 1113 263 476 674 949 1144 1314 227 177 561 376 830 496
254 113 463 186 715 248 44 11 96 24 115 29 45 11 173 35 270 50 41 6 100 16
130 21 45 8 253 23 384 28 17 1 32 4 34 6 7 6 219 -1 427 -14z"/>
<path d="M4280 8600 c0 -13 37 -50 50 -50 19 0 60 32 60 46 0 19 -26 18 -34
-1 -3 -8 -12 -15 -20 -15 -7 0 -16 7 -20 15 -6 17 -36 21 -36 5z"/>
<path d="M4358 8471 c-29 -28 -56 -51 -60 -51 -4 0 -8 19 -10 43 -3 36 -7 43
-27 45 l-24 4 6 -153 c4 -84 11 -157 16 -162 5 -5 17 -7 27 -3 14 6 16 16 11
72 l-6 65 42 47 c23 26 43 49 44 51 2 3 8 0 14 -6 12 -12 18 -65 18 -160 1
-60 2 -63 26 -63 23 0 25 3 24 48 -2 100 -24 265 -36 269 -7 3 -36 -18 -65
-46z"/>
<path d="M4717 8503 c-4 -3 -7 -40 -7 -80 0 -65 3 -77 25 -98 18 -19 35 -25
70 -25 41 0 45 -2 45 -24 0 -37 -23 -49 -79 -42 -51 7 -66 0 -52 -23 10 -16
89 -26 125 -17 45 11 55 42 62 179 7 125 6 127 -15 127 -19 0 -21 -5 -21 -60
0 -51 -4 -65 -25 -85 -30 -31 -40 -31 -72 1 -24 24 -25 29 -18 90 6 59 5 64
-13 64 -10 0 -22 -3 -25 -7z"/>
<path d="M4113 8433 c3 -38 8 -79 10 -93 3 -14 8 -54 12 -88 8 -64 25 -86 47
-64 8 8 8 28 0 69 -5 32 -16 100 -23 151 -11 80 -15 92 -32 92 -18 0 -19 -5
-14 -67z"/>
<path d="M4990 8393 c-26 -199 -26 -204 -15 -213 20 -16 33 4 40 63 8 66 17
73 72 60 l38 -9 0 -69 c0 -55 3 -70 15 -70 8 0 18 11 21 25 13 47 40 271 33
281 -3 6 -13 9 -22 7 -12 -2 -20 -21 -27 -63 -10 -59 -11 -60 -45 -63 -19 -2
-43 3 -53 10 -16 12 -17 19 -7 61 14 54 9 77 -18 77 -16 0 -21 -14 -32 -97z"/>
<path d="M3849 8455 c-3 -2 2 -59 11 -125 21 -149 35 -170 115 -170 43 0 57 5
79 27 48 48 47 104 -5 156 -26 26 -35 29 -72 24 -23 -2 -48 -6 -56 -8 -8 -2
-16 3 -17 11 -2 8 -5 32 -9 53 -4 27 -11 37 -24 37 -10 0 -20 -2 -22 -5z m171
-147 c45 -48 10 -116 -57 -109 -22 2 -43 33 -43 63 0 62 59 89 100 46z"/>
<path d="M5293 8442 c-6 -4 -16 -32 -22 -62 -17 -90 -40 -197 -46 -212 -7 -17
19 -43 34 -34 5 4 12 21 16 39 20 96 23 102 80 136 31 19 58 31 61 28 3 -3 0
-31 -6 -64 -32 -159 -33 -173 -5 -173 17 0 22 13 50 155 13 68 26 129 27 136
6 26 -42 21 -92 -10 -28 -17 -55 -31 -61 -31 -6 0 -9 18 -7 47 3 45 -6 60 -29
45z"/>
<path d="M3724 8370 c7 -78 5 -81 -56 -84 -31 -1 -33 1 -48 58 -16 59 -35 80
-50 57 -7 -13 -5 -26 25 -161 9 -41 19 -87 22 -102 6 -34 30 -55 44 -41 7 7 6
30 -2 72 -15 69 -11 75 44 85 34 6 38 5 48 -21 6 -15 13 -45 16 -65 5 -32 10
-38 29 -38 28 0 28 -3 9 85 -9 39 -20 94 -26 124 -15 76 -26 101 -45 101 -15
0 -16 -9 -10 -70z"/>
<path d="M3447 8367 c-15 -11 -15 -16 -2 -52 16 -46 19 -81 7 -89 -5 -3 -27
-8 -49 -12 l-39 -6 -14 57 c-14 56 -32 77 -51 58 -10 -10 5 -84 36 -177 7 -23
18 -60 25 -83 8 -32 16 -43 30 -43 25 0 26 30 5 90 -18 51 -10 65 42 75 42 8
46 3 68 -72 10 -34 21 -53 31 -53 31 0 28 36 -16 170 -5 14 -16 51 -26 83 -19
65 -24 71 -47 54z"/>
<path d="M5566 8372 c-8 -13 -68 -225 -73 -259 -3 -18 -3 -33 0 -33 3 0 33 -7
67 -16 79 -20 112 -13 136 31 16 30 17 40 6 67 -11 29 -10 34 13 58 27 29 33
75 13 103 -13 18 -110 57 -140 57 -9 0 -19 -4 -22 -8z m109 -62 c40 -44 -8
-94 -69 -71 -22 9 -26 15 -21 34 4 12 9 30 11 40 7 24 56 22 79 -3z m-28 -132
c29 -24 1 -88 -38 -88 -32 0 -70 22 -65 39 15 55 20 67 29 73 11 7 53 -7 74
-24z"/>
<path d="M5806 8233 c-39 -106 -68 -202 -64 -214 5 -14 129 -60 145 -54 23 8
2 32 -40 45 -58 18 -60 21 -45 68 15 50 27 56 72 37 46 -19 56 -19 56 3 0 13
-13 23 -41 32 -50 17 -53 22 -37 66 12 33 15 35 43 29 83 -17 98 -18 93 -4 -5
14 -108 57 -140 58 -11 1 -24 -20 -42 -66z"/>
<path d="M3110 8258 c-30 -11 -58 -24 -63 -27 -7 -7 3 -49 23 -96 5 -11 21
-54 36 -95 39 -105 39 -105 110 -79 62 23 84 36 84 50 0 14 -33 11 -73 -6 -48
-20 -46 -20 -63 20 -22 53 -18 64 31 85 43 19 55 33 36 44 -5 3 -25 -1 -45 -9
-52 -22 -63 -19 -76 20 -13 38 -2 65 26 65 24 0 64 23 64 37 0 18 -25 16 -90
-9z"/>
<path d="M6036 8158 c-62 -140 -88 -210 -82 -223 11 -29 34 -14 55 36 17 41
24 50 38 44 10 -4 37 -10 60 -12 37 -5 46 -2 73 25 23 23 30 39 30 69 0 47
-23 76 -74 97 -63 26 -74 22 -100 -36z m114 -18 c23 -23 24 -30 8 -65 -14 -30
-50 -42 -83 -27 -21 10 -23 15 -16 40 22 74 52 91 91 52z"/>
<path d="M2832 8143 c-64 -31 -64 -24 12 -187 33 -69 61 -116 69 -116 23 0
107 40 128 61 11 11 19 33 19 53 0 36 -32 86 -56 86 -10 0 -14 12 -14 40 0 30
-7 47 -25 65 -31 32 -65 31 -133 -2z m89 -23 c28 -16 25 -64 -6 -84 -13 -9
-29 -16 -34 -16 -12 0 -41 52 -41 74 0 11 26 27 58 35 2 1 12 -4 23 -9z m71
-127 c35 -32 16 -81 -39 -97 -18 -6 -25 -1 -43 33 -11 22 -20 42 -20 45 0 8
53 35 69 36 8 0 23 -7 33 -17z"/>
<path d="M6313 8093 c-31 -6 -69 -55 -105 -132 -25 -55 -29 -72 -22 -101 11
-42 63 -80 109 -80 32 0 85 32 85 51 0 19 -32 21 -65 4 -31 -18 -35 -18 -59
-2 -35 23 -33 51 9 134 40 79 64 99 98 82 30 -16 37 -28 37 -66 0 -37 14 -50
35 -33 20 16 19 70 -1 98 -22 32 -79 53 -121 45z"/>
<path d="M2615 8034 c-98 -52 -109 -79 -25 -59 22 6 28 0 55 -52 67 -128 90
-163 108 -163 28 0 20 27 -39 138 l-57 105 32 26 c17 14 31 29 31 32 0 20 -34
11 -105 -27z"/>
<path d="M4220 7999 c-169 -14 -394 -53 -571 -99 -508 -130 -988 -375 -1399
-713 -92 -76 -387 -369 -460 -456 -360 -434 -609 -930 -734 -1461 -56 -234
-61 -268 -95 -610 -33 -321 17 -819 119 -1185 131 -473 358 -918 659 -1290
105 -130 118 -145 240 -269 183 -187 373 -345 581 -482 l103 -68 16 24 c9 12
41 69 71 124 129 238 146 266 158 266 7 0 51 -22 97 -49 503 -298 1128 -442
1743 -402 108 7 217 16 242 21 25 5 86 16 135 26 172 31 465 118 592 175 161
71 282 131 391 193 35 20 67 36 71 36 4 0 58 -92 120 -205 63 -113 117 -205
120 -205 14 0 159 96 276 184 641 478 1115 1181 1318 1956 409 1559 -264 3190
-1654 4011 -340 200 -786 367 -1149 430 -130 22 -176 29 -250 39 -103 14 -611
21 -740 9z m710 -120 c223 -30 361 -56 515 -98 93 -26 375 -120 390 -130 6 -4
42 -20 80 -36 96 -39 298 -141 363 -182 29 -18 55 -33 57 -33 20 0 337 -227
459 -329 68 -56 376 -371 432 -440 206 -257 373 -531 498 -811 80 -180 165
-437 200 -605 10 -44 21 -96 26 -115 8 -33 22 -126 50 -342 15 -109 15 -575 1
-666 -5 -37 -15 -107 -22 -157 -53 -424 -223 -906 -452 -1285 -160 -264 -347
-503 -550 -702 -110 -109 -241 -219 -257 -216 -31 6 -20 42 23 76 232 184 522
520 714 827 158 253 331 655 393 915 85 355 110 553 110 875 0 723 -217 1404
-633 1984 -466 649 -1163 1132 -1907 1320 -47 12 -101 26 -120 32 -57 16 -266
49 -395 64 -237 26 -677 14 -910 -24 -209 -34 -583 -137 -710 -195 -16 -8 -59
-26 -95 -41 -239 -100 -527 -270 -760 -451 -138 -107 -446 -411 -554 -548
-210 -264 -382 -556 -495 -837 -23 -57 -46 -113 -51 -124 -37 -86 -119 -383
-144 -525 -10 -52 -21 -115 -26 -140 -5 -25 -17 -128 -26 -230 -23 -258 -13
-553 27 -805 35 -217 92 -453 139 -570 4 -11 23 -60 40 -110 157 -434 448
-883 791 -1222 74 -72 150 -144 169 -160 84 -67 95 -80 81 -97 -8 -9 -17 -16
-22 -16 -5 0 -44 30 -87 67 -260 225 -506 514 -688 808 -66 108 -188 341 -231
440 -31 72 -89 226 -97 255 -4 14 -11 34 -16 45 -31 76 -105 382 -125 520 -8
61 -20 136 -26 169 -16 91 -23 504 -10 651 19 227 29 296 61 440 5 22 16 74
25 115 9 41 20 86 25 100 4 14 16 52 25 85 17 60 43 134 88 255 199 526 562
1032 1008 1405 422 353 906 596 1439 724 99 23 267 52 435 74 66 9 675 6 745
-4z m-655 -561 c21 -62 53 -153 70 -203 l30 -90 85 -2 c47 -1 121 -2 164 -4
76 -2 80 -1 89 22 5 13 37 105 72 204 l62 180 49 -2 c27 -1 65 -7 84 -12 19
-5 78 -17 130 -26 52 -9 111 -21 131 -26 l36 -9 -5 -210 -5 -209 24 -10 c19
-8 194 -67 259 -87 10 -4 28 12 50 43 19 26 37 50 40 53 3 3 19 23 35 45 70
95 138 175 149 175 7 0 86 -37 177 -83 l164 -82 -1 -35 c-1 -19 -20 -107 -43
-195 -22 -88 -40 -167 -40 -175 0 -8 52 -51 115 -95 128 -90 198 -149 192
-165 -2 -6 -81 -101 -177 -210 l-173 -200 -171 0 -170 0 -46 29 c-160 103
-518 241 -711 275 -52 9 -120 22 -150 28 -73 14 -418 14 -500 -1 -360 -65
-581 -142 -836 -291 l-66 -38 -169 -2 c-192 -1 -165 -12 -265 105 -28 33 -97
113 -153 177 -55 65 -101 124 -101 132 0 20 75 84 196 166 57 39 106 74 109
79 3 5 -2 36 -11 68 -8 32 -24 94 -35 138 -10 44 -23 94 -28 110 -5 17 -12 44
-16 62 l-6 32 170 86 c94 47 176 85 183 85 7 -1 69 -73 137 -161 89 -116 128
-159 140 -156 125 40 268 93 273 101 5 6 6 29 3 51 -2 22 -7 112 -10 201 l-6
161 43 11 c53 13 117 26 228 46 47 9 94 17 105 20 59 12 59 12 100 -106z
m-1485 -2963 l5 -1220 617 -3 617 -2 3 27 c12 100 -59 182 -177 204 -22 5 -76
15 -120 24 -44 9 -100 20 -125 24 -25 5 -94 18 -155 30 -183 35 -206 39 -305
56 -52 9 -102 20 -110 24 -13 7 -15 132 -18 1020 -2 895 0 1012 13 1017 20 8
331 -45 500 -86 22 -5 81 -17 130 -25 50 -9 106 -20 125 -25 19 -5 60 -13 90
-19 30 -6 102 -20 160 -32 58 -12 116 -23 130 -26 187 -32 305 -59 337 -75 23
-11 27 -11 138 20 39 10 113 27 165 36 52 10 113 21 135 26 64 13 263 53 580
114 26 5 125 25 335 67 142 29 191 33 200 19 11 -17 9 -2015 -2 -2025 -8 -8
-55 -18 -188 -41 -141 -25 -265 -48 -395 -74 -22 -5 -76 -15 -120 -24 -44 -8
-103 -20 -131 -26 -107 -23 -178 -98 -172 -182 l3 -43 620 0 620 0 5 1220 5
1220 150 0 150 0 0 -1375 0 -1375 -937 -3 -938 -2 0 208 c0 225 8 280 56 373
61 121 207 218 404 270 37 10 170 35 260 49 30 5 84 16 120 23 36 8 89 18 118
22 l52 7 0 702 c0 387 -2 705 -5 708 -4 4 -96 -13 -390 -72 -27 -6 -108 -22
-180 -36 -71 -13 -148 -29 -170 -34 -22 -5 -80 -17 -130 -25 -175 -32 -222
-59 -244 -140 -8 -28 -11 -353 -11 -1048 l0 -1008 -67 3 -68 3 -5 1030 c-5
945 -6 1033 -22 1061 -34 62 -27 60 -458 144 -168 33 -373 74 -456 90 -82 17
-160 30 -172 30 l-22 0 2 -702 3 -702 95 -18 c52 -10 118 -22 145 -28 28 -5
93 -17 145 -26 80 -14 159 -32 265 -62 11 -3 52 -21 90 -41 122 -61 221 -178
255 -301 14 -49 23 -450 11 -469 -5 -8 -257 -10 -942 -9 l-934 3 -3 1365 c-1
751 0 1371 3 1378 3 10 41 12 157 10 l153 -3 5 -1220z m2327 -1991 c44 -17 73
-77 73 -149 0 -85 -29 -128 -114 -171 -73 -35 -87 -48 -89 -80 l-2 -29 100 -5
100 -5 0 -30 0 -30 -145 0 -145 0 0 76 c1 95 20 124 111 170 77 39 94 59 94
111 0 65 -59 100 -102 61 -10 -9 -18 -26 -18 -38 0 -41 -49 -62 -81 -36 -48
39 6 140 89 165 48 15 74 13 129 -10z m-726 -15 c50 -35 59 -71 59 -234 0
-156 -8 -193 -51 -231 -27 -24 -80 -44 -116 -44 -39 0 -119 39 -133 65 -28 52
14 80 71 47 21 -12 51 -22 68 -22 39 0 73 42 69 84 -3 31 -3 31 -58 29 -63 -3
-112 17 -143 59 -25 34 -34 131 -17 182 12 36 57 79 95 89 41 12 125 -1 156
-24z m377 4 c62 -46 80 -133 30 -146 -29 -8 -68 17 -68 43 0 26 -43 54 -69 45
-35 -11 -51 -35 -51 -77 l0 -41 40 6 c82 11 158 -31 181 -100 15 -46 3 -139
-23 -175 -22 -31 -94 -68 -131 -68 -32 1 -99 34 -124 61 -11 13 -26 42 -32 64
-14 52 -14 259 0 309 12 43 57 92 92 100 47 10 128 -1 155 -21z m-710 -235 l2
-247 -24 -16 c-20 -14 -28 -14 -45 -3 -20 12 -21 21 -21 222 l0 208 -53 -6
c-60 -8 -81 5 -75 46 4 30 62 48 148 45 l65 -2 3 -247z m-371 -4 c3 -9 2 -24
-4 -33 -9 -14 -40 -16 -230 -19 -198 -2 -221 -1 -227 14 -4 9 -4 25 -1 35 6
18 21 19 231 19 199 0 225 -2 231 -16z m2171 -13 c2 -13 -2 -28 -10 -32 -15
-10 -418 -12 -442 -3 -16 6 -22 45 -9 58 4 3 108 5 232 4 l226 -3 3 -24z"/>
<path d="M4080 7239 c-14 -4 -39 -7 -57 -8 -17 -1 -34 -5 -37 -9 -3 -5 -1 -98
3 -208 5 -109 7 -201 5 -203 -4 -4 -73 -24 -164 -46 -81 -20 -163 -48 -284
-95 -59 -23 -109 -40 -110 -39 -2 2 -50 78 -107 168 -57 90 -109 165 -115 168
-9 3 -124 -44 -124 -52 0 -1 9 -31 20 -66 31 -99 36 -116 65 -232 16 -59 26
-109 24 -111 -2 -1 -42 -27 -89 -57 -115 -72 -190 -129 -190 -144 0 -11 68
-105 77 -105 2 0 30 17 61 39 137 93 283 173 462 254 138 63 361 135 520 168
301 63 685 66 965 8 91 -19 180 -40 205 -48 14 -5 45 -14 70 -22 196 -56 504
-200 692 -325 62 -41 115 -74 118 -74 3 0 22 24 42 52 36 50 37 52 20 71 -9
11 -74 57 -144 103 -95 63 -125 88 -122 101 2 10 11 45 20 78 9 33 22 83 29
110 8 28 23 81 34 120 12 38 21 74 21 78 0 9 -98 57 -116 57 -6 0 -59 -76
-118 -170 -60 -93 -112 -170 -117 -170 -6 0 -26 8 -47 19 -62 31 -401 141
-435 141 -9 0 -28 5 -42 12 l-26 12 7 202 c4 120 3 203 -2 207 -6 3 -37 9 -70
12 l-61 7 -47 -148 c-26 -82 -55 -169 -65 -193 l-17 -44 -293 0 -294 0 -61
186 c-34 103 -66 190 -71 195 -6 5 -21 6 -35 1z"/>
<path d="M4360 6553 c-54 -4 -230 -30 -285 -43 -233 -53 -429 -122 -615 -215
-154 -78 -360 -206 -360 -225 0 -6 47 -10 113 -10 97 0 117 3 147 22 113 69
316 160 480 214 408 135 752 156 1155 70 66 -14 85 -19 180 -46 148 -43 264
-91 463 -192 l132 -68 105 0 c57 0 106 4 109 9 13 21 -412 266 -514 296 -14 4
-29 11 -35 15 -17 13 -226 81 -325 107 -175 44 -332 65 -525 67 -99 1 -200 1
-225 -1z"/>
<path d="M4243 2281 c-29 -27 -30 -104 -2 -132 22 -22 108 -28 110 -6 3 50 -4
124 -14 134 -23 24 -70 26 -94 4z"/>
<path d="M4623 2093 c-16 -6 -17 -79 -2 -122 12 -34 42 -47 83 -37 50 12 60
118 13 151 -21 14 -69 19 -94 8z"/>
<path d="M6506 7918 c-64 -101 -106 -179 -106 -194 0 -8 9 -14 19 -14 13 0 30
18 51 54 23 41 39 57 63 64 52 16 96 22 101 13 3 -4 -20 -49 -50 -100 -45 -75
-53 -95 -44 -107 10 -11 16 -12 27 -3 23 20 155 248 148 259 -8 13 -55 13
-111 -1 -54 -14 -63 -7 -41 30 22 37 22 61 -1 61 -10 0 -32 -25 -56 -62z"/>
<path d="M2373 7900 c-59 -36 -69 -89 -28 -155 13 -22 33 -57 45 -77 24 -45
46 -58 97 -58 45 0 77 20 98 60 19 36 19 61 1 85 -12 17 -16 17 -31 5 -11 -9
-14 -22 -10 -38 13 -52 -44 -91 -86 -59 -25 19 -89 126 -89 148 0 54 50 77 93
44 21 -15 47 -10 47 10 0 21 -50 55 -79 55 -14 0 -40 -9 -58 -20z"/>
<path d="M6770 7825 c0 -8 9 -19 20 -25 11 -6 20 -18 20 -28 0 -9 -31 -62 -70
-118 -60 -87 -68 -104 -55 -114 20 -17 31 -7 101 96 73 107 77 111 109 90 26
-17 45 -14 45 7 -1 15 -134 107 -155 107 -8 0 -15 -7 -15 -15z"/>
<path d="M2149 7742 c-77 -50 -77 -45 13 -171 84 -115 101 -132 120 -113 8 8
4 22 -15 51 -15 22 -27 43 -27 46 0 4 16 21 35 39 49 46 49 92 0 141 -43 42
-67 44 -126 7z m104 -54 c19 -26 19 -28 3 -53 -27 -42 -46 -43 -78 -5 -15 19
-28 41 -28 50 0 47 70 52 103 8z"/>
<path d="M6917 7571 c-48 -61 -87 -117 -87 -125 0 -18 108 -108 121 -100 18
11 8 32 -26 58 -42 33 -44 54 -7 89 l28 27 34 -25 c19 -14 40 -25 47 -25 23 0
14 29 -17 52 -34 25 -37 44 -11 76 25 29 29 28 80 -10 34 -24 45 -28 51 -18 5
8 7 17 5 21 -8 12 -112 89 -122 89 -5 0 -48 -49 -96 -109z"/>
<path d="M1945 7586 c-55 -24 -84 -80 -66 -128 9 -25 121 -164 148 -185 9 -7
20 -10 24 -7 16 10 9 35 -18 71 l-27 36 38 33 c22 19 42 34 46 34 4 0 21 -16
39 -35 17 -19 36 -35 42 -35 19 0 21 30 2 53 -92 119 -127 156 -155 166 -38
13 -36 13 -73 -3z m84 -67 c17 -17 31 -34 31 -39 0 -10 -67 -70 -79 -70 -14 0
-49 45 -56 72 -5 19 -1 32 14 47 29 29 54 26 90 -10z"/>
<path d="M7180 7517 c0 -8 9 -22 20 -32 11 -10 20 -22 20 -27 0 -5 -36 -50
-80 -99 -44 -49 -80 -95 -80 -103 0 -46 42 -15 152 113 47 55 52 56 95 25 21
-15 23 -15 29 0 4 11 -1 24 -12 34 -11 9 -41 36 -67 60 -47 42 -77 54 -77 29z"/>
<path d="M1697 7366 c-19 -19 -37 -46 -41 -60 -7 -28 11 -73 40 -97 40 -33 94
-112 94 -138 0 -31 42 -77 60 -66 7 5 9 20 6 40 -6 29 -1 37 44 79 42 39 53
45 69 36 29 -15 41 -12 41 8 0 23 -45 66 -59 58 -6 -4 -50 34 -99 83 -48 50
-96 91 -105 91 -9 0 -32 -15 -50 -34z m126 -95 c42 -43 77 -84 77 -89 0 -11
-57 -62 -69 -62 -4 0 -12 10 -18 23 -6 13 -34 48 -62 79 -28 31 -51 64 -51 74
0 17 27 54 39 54 4 0 41 -36 84 -79z"/>
<path d="M7480 7231 c0 -4 10 -21 22 -36 l22 -28 -99 -92 c-92 -85 -110 -115
-71 -115 8 0 54 36 102 80 49 44 93 80 99 80 5 0 21 -9 35 -20 64 -50 52 1
-18 78 -50 55 -92 79 -92 53z"/>
<path d="M1533 7193 c-22 -8 -15 -23 32 -69 52 -50 59 -85 21 -109 -28 -19
-48 -12 -104 36 -37 33 -50 36 -58 14 -13 -33 81 -105 135 -105 40 1 62 14 80
48 22 41 51 22 51 -34 0 -14 -11 -32 -30 -46 -36 -26 -39 -48 -6 -48 38 0 86
62 86 110 0 36 -6 44 -85 116 -93 86 -104 93 -122 87z"/>
<path d="M7567 6948 c-58 -46 -108 -89 -111 -97 -4 -7 10 -35 29 -61 46 -62
63 -76 77 -62 7 7 1 23 -22 56 -33 45 -33 46 -14 67 39 43 53 44 93 5 20 -20
40 -36 44 -36 15 0 6 33 -19 66 l-27 35 23 24 c32 34 49 31 90 -16 31 -36 37
-39 48 -26 10 12 5 24 -33 71 -25 31 -52 56 -59 56 -7 0 -60 -37 -119 -82z"/>
<path d="M1325 6941 c-35 -15 -57 -49 -62 -95 -5 -41 -3 -48 26 -75 46 -43
150 -111 170 -111 53 0 120 83 107 133 -7 31 -34 59 -50 54 -11 -4 -11 -18 0
-74 5 -26 2 -34 -20 -48 -30 -20 -56 -14 -111 28 -51 38 -85 78 -85 98 0 25
36 51 67 49 46 -3 53 -1 53 19 0 29 -49 40 -95 22z"/>
<path d="M7802 6807 c-12 -13 -28 -41 -35 -62 -14 -40 -14 -40 -74 -45 -60 -5
-93 -21 -93 -45 0 -20 22 -24 53 -8 16 8 43 13 60 11 29 -3 32 -6 30 -36 -1
-22 -11 -44 -28 -62 -26 -27 -29 -60 -7 -60 24 0 62 45 77 91 l17 50 38 -6
c50 -8 110 16 110 44 0 25 -15 26 -63 6 -35 -14 -65 -11 -78 8 -10 15 9 62 36
87 19 18 22 26 14 37 -16 19 -33 16 -57 -10z"/>
<path d="M1131 6689 c-26 -26 -31 -38 -31 -79 0 -48 2 -50 53 -88 115 -84 152
-96 197 -65 40 27 49 45 50 94 0 55 -7 65 -95 123 -87 58 -128 61 -174 15z
m156 -61 c37 -24 66 -52 69 -64 15 -61 -33 -91 -94 -58 -106 57 -142 105 -107
144 27 30 62 24 132 -22z"/>
<path d="M7924 6543 c-43 -25 -98 -57 -121 -70 -52 -30 -60 -41 -41 -59 12
-12 20 -10 61 16 26 16 52 30 57 30 12 0 50 -59 50 -77 0 -6 -22 -25 -50 -42
-48 -29 -62 -53 -40 -66 12 -7 257 134 264 153 11 26 -28 25 -76 -1 -27 -15
-53 -25 -58 -22 -5 3 -17 22 -27 42 l-17 36 30 23 c16 13 37 27 47 30 17 5 24
39 9 48 -5 3 -44 -15 -88 -41z"/>
<path d="M990 6458 l-33 -61 26 -21 c14 -12 43 -30 64 -41 21 -11 67 -37 102
-58 64 -38 95 -42 89 -10 -3 15 -94 74 -185 119 -38 19 -41 36 -13 82 25 40
25 52 1 52 -12 0 -29 -20 -51 -62z"/>
<path d="M8016 6275 c-96 -48 -106 -59 -106 -115 0 -64 40 -110 94 -110 42 0
147 49 189 88 31 30 36 76 12 122 -31 61 -89 65 -189 15z m144 -25 c11 -11 20
-28 20 -38 0 -25 -45 -64 -109 -96 -47 -23 -58 -25 -82 -15 -16 6 -31 20 -35
31 -13 41 4 62 78 100 85 43 101 45 128 18z"/>
<path d="M717 6144 c-3 -4 -4 -19 -1 -34 5 -22 2 -28 -16 -33 -25 -6 -18 -27
9 -27 39 0 66 61 39 88 -13 13 -22 15 -31 6z"/>
<path d="M827 6143 c-11 -11 -8 -46 7 -75 8 -15 17 -41 21 -59 7 -30 6 -31
-16 -25 -55 18 -79 19 -79 3 0 -19 14 -29 80 -56 30 -13 79 -34 108 -47 71
-32 97 -35 97 -10 0 14 -14 26 -52 41 -29 11 -57 25 -63 31 -14 14 -50 123
-42 128 4 2 49 -14 101 -35 106 -44 121 -47 121 -20 0 12 -12 23 -32 32 -18 7
-61 25 -95 40 -134 61 -144 64 -156 52z"/>
<path d="M8181 5998 c-96 -38 -106 -40 -139 -28 -43 15 -63 -4 -33 -34 27 -27
84 -23 174 13 43 17 84 31 91 31 12 0 36 -47 36 -70 0 -5 -53 -29 -117 -55
-65 -26 -122 -51 -127 -55 -14 -13 13 -40 32 -33 9 3 41 17 70 29 29 13 55 24
58 24 3 0 20 6 37 14 18 7 47 19 65 26 20 8 32 19 32 31 0 25 -56 149 -67 148
-4 0 -55 -19 -112 -41z"/>
<path d="M710 5860 c0 -11 11 -44 25 -75 14 -31 23 -60 20 -65 -3 -6 -22 -3
-46 7 -35 14 -42 14 -50 2 -19 -30 -23 -27 137 -83 140 -49 164 -54 164 -29 0
15 -15 25 -66 43 -63 22 -68 26 -90 74 -41 88 -38 90 86 46 100 -35 120 -37
120 -12 0 14 -14 24 -47 35 -27 9 -86 30 -132 46 -99 37 -121 39 -121 11z"/>
<path d="M8335 5765 c-76 -19 -165 -52 -182 -68 -18 -16 -23 -32 -23 -67 0
-59 27 -97 75 -106 45 -8 178 33 211 65 40 40 29 136 -20 159 -29 14 -49 19
-61 17z m47 -62 c26 -23 23 -69 -5 -87 -24 -16 -140 -56 -163 -56 -22 0 -55
51 -48 74 9 31 15 35 90 61 83 29 102 30 126 8z"/>
<path d="M613 5583 c-4 -9 -2 -18 3 -20 52 -17 80 -41 94 -80 8 -23 11 -45 8
-48 -3 -3 -33 1 -66 9 -76 20 -74 20 -70 -6 3 -22 42 -36 228 -83 72 -19 72
-19 68 7 -2 17 -14 26 -50 36 -40 11 -48 17 -53 43 -10 44 6 54 83 54 60 1 67
3 67 20 0 18 -8 20 -67 23 -37 2 -76 -2 -86 -7 -15 -8 -24 -5 -43 15 -46 50
-104 68 -116 37z"/>
<path d="M8425 5489 c-16 -4 -74 -19 -129 -33 -54 -14 -101 -28 -104 -30 -9
-10 7 -36 22 -36 9 0 66 13 128 30 104 27 112 28 124 12 8 -9 14 -25 14 -35 0
-23 18 -57 29 -57 17 0 19 27 6 76 -24 91 -25 92 -90 73z"/>
<path d="M573 5300 c-54 -32 -67 -125 -23 -165 24 -21 118 -46 185 -48 63 -2
89 16 107 74 14 48 -3 94 -43 114 -39 21 -49 19 -49 -9 0 -15 7 -26 20 -29 31
-8 43 -52 24 -82 -13 -20 -25 -25 -59 -25 -23 0 -55 4 -71 9 -16 5 -41 12 -55
15 -34 7 -56 55 -40 85 7 11 24 24 39 27 41 10 55 24 41 40 -16 19 -38 17 -76
-6z"/>
<path d="M8460 5244 c-41 -8 -104 -18 -139 -23 -69 -11 -87 -21 -78 -44 4 -12
16 -14 49 -10 24 3 52 9 63 13 24 9 80 -17 114 -53 28 -31 21 -47 -22 -48 -65
-2 -182 -33 -182 -49 0 -17 67 -18 150 -1 28 6 76 16 108 22 75 14 76 34 2 89
-30 22 -55 45 -55 50 0 5 19 13 43 17 31 7 42 13 42 27 0 26 -8 26 -95 10z"/>
<path d="M505 5006 c-23 -34 -32 -131 -14 -142 8 -4 63 -14 124 -20 60 -7 125
-16 143 -20 29 -6 32 -4 32 19 0 23 -5 25 -55 32 l-55 6 0 53 c0 73 -25 96
-103 96 -49 0 -59 -3 -72 -24z m124 -37 c25 -28 15 -74 -17 -73 -93 3 -92 2
-92 33 0 16 7 37 16 45 22 23 70 20 93 -5z"/>
<path d="M8450 4949 c-123 -13 -165 -23 -165 -39 0 -12 14 -14 74 -12 70 2 76
0 117 -30 42 -32 60 -56 49 -66 -2 -3 -53 -11 -112 -18 -60 -7 -109 -13 -110
-13 -2 -1 -3 -7 -3 -15 0 -23 24 -26 122 -15 51 6 117 12 146 15 68 7 69 28 2
86 -27 24 -50 48 -50 55 0 6 19 16 43 20 26 6 42 14 42 23 0 18 -48 21 -155 9z"/>
<path d="M8662 4908 c-18 -18 -15 -53 6 -71 23 -21 42 -22 42 -2 0 8 -7 15
-15 15 -8 0 -15 9 -15 20 0 11 7 23 15 26 8 4 15 10 15 15 0 13 -34 11 -48 -3z"/>
<path d="M467 4773 c-15 -15 -5 -41 33 -83 22 -25 40 -53 40 -64 0 -16 -6 -18
-41 -13 -30 4 -42 2 -46 -10 -3 -8 -2 -18 3 -22 5 -5 68 -12 139 -15 72 -4
139 -8 150 -9 14 -1 21 5 23 19 3 20 -3 22 -72 29 -73 6 -76 8 -110 50 -56 68
-53 70 79 67 110 -3 115 -2 115 17 0 19 -6 21 -67 22 -83 1 -168 7 -209 14
-17 3 -33 2 -37 -2z"/>
<path d="M8320 4483 c0 -18 9 -21 73 -27 69 -6 74 -8 115 -50 23 -25 42 -50
42 -55 0 -7 -42 -11 -120 -11 -113 0 -120 -1 -120 -20 0 -19 7 -20 135 -22 74
-1 145 -2 158 -2 38 -1 32 35 -13 86 -22 25 -40 51 -40 57 0 6 18 11 40 11 27
0 43 5 47 15 3 9 3 18 0 21 -3 3 -76 8 -161 11 -150 5 -156 4 -156 -14z"/>
<path d="M584 4465 c-23 -23 -25 -33 -22 -81 3 -58 -9 -73 -52 -59 -16 5 -20
17 -22 68 -2 47 -7 62 -18 62 -11 0 -16 -15 -18 -65 -5 -114 -10 -110 126
-110 138 0 170 13 189 75 10 30 9 45 -4 77 -19 48 -37 58 -103 58 -41 0 -56
-5 -76 -25z m136 -47 c13 -25 13 -31 0 -55 -35 -62 -134 -31 -121 37 11 56 93
68 121 18z"/>
<path d="M645 4208 c-175 -15 -185 -17 -185 -37 0 -10 23 -39 50 -65 28 -26
50 -52 50 -57 0 -5 -17 -9 -37 -9 -21 0 -45 -5 -53 -10 -13 -8 -13 -11 2 -26
16 -16 27 -16 130 -5 62 6 129 13 148 14 27 2 35 6 35 22 0 18 -6 19 -75 17
l-75 -2 -42 40 c-62 58 -58 70 25 71 112 1 157 11 157 34 0 24 -5 24 -130 13z"/>
<path d="M8301 4022 c-20 -38 -23 -89 -7 -120 19 -36 88 -62 165 -62 25 0 64
-5 86 -10 45 -10 42 -11 47 15 3 17 -5 21 -62 31 -36 7 -68 12 -71 13 -3 1
-11 13 -18 27 -10 22 -9 31 5 51 15 24 20 25 90 21 70 -3 75 -2 72 17 -3 17
-14 21 -67 28 -103 13 -141 -12 -144 -96 -2 -47 -15 -55 -46 -30 -23 19 -28
49 -16 101 6 26 4 32 -8 32 -9 0 -21 -8 -26 -18z"/>
<path d="M692 3923 c2 -9 14 -20 27 -23 13 -3 33 -17 43 -31 16 -22 17 -29 7
-52 -14 -31 -19 -33 -116 -47 -78 -12 -107 -5 -118 29 -8 27 10 68 34 76 29 9
28 45 -1 45 -74 -1 -105 -109 -49 -169 26 -27 35 -31 83 -30 75 1 162 21 187
43 32 29 30 118 -4 151 -30 31 -99 36 -93 8z"/>
<path d="M8260 3763 c0 -21 32 -31 166 -54 98 -16 107 -24 91 -80 -15 -51 -14
-51 -147 -24 -149 30 -140 30 -140 7 0 -22 8 -26 85 -42 143 -29 210 -39 216
-32 11 10 41 163 35 177 -2 7 -33 17 -68 24 -34 7 -79 16 -98 21 -19 5 -59 12
-87 16 -48 6 -53 5 -53 -13z"/>
<path d="M685 3630 c-4 -6 -1 -33 6 -60 9 -36 18 -50 30 -50 15 0 17 6 12 38
-11 71 -31 100 -48 72z"/>
<path d="M8200 3492 c0 -13 12 -23 43 -31 60 -19 64 -24 59 -84 -4 -47 -1 -57
19 -75 49 -47 129 -37 155 18 22 47 36 102 28 110 -9 9 -38 17 -203 61 -92 24
-101 24 -101 1z m233 -84 c39 -15 32 -64 -13 -88 -32 -17 -80 13 -80 49 0 63
14 69 93 39z"/>
<path d="M710 3429 c-87 -27 -114 -56 -107 -118 4 -35 13 -52 37 -74 29 -26
38 -29 76 -23 23 3 73 16 111 29 59 20 70 28 87 61 16 32 16 41 5 69 -7 18
-21 42 -32 55 -26 28 -85 28 -177 1z m152 -36 c21 -19 24 -66 4 -82 -21 -17
-127 -50 -163 -51 -47 0 -78 51 -54 89 10 15 133 59 170 60 14 1 33 -6 43 -16z"/>
<path d="M8143 3273 c-28 -10 -13 -40 25 -51 63 -20 65 -24 51 -71 -18 -59
-30 -67 -80 -47 -28 11 -45 14 -52 7 -17 -17 0 -39 40 -51 21 -6 47 -15 58
-20 113 -48 169 -49 204 -4 31 39 35 79 14 122 -17 34 -25 39 -113 69 -52 18
-104 36 -115 41 -11 5 -26 7 -32 5z m182 -107 c47 -20 63 -55 40 -89 -20 -31
-47 -42 -72 -28 -10 5 -26 12 -37 15 -20 7 -19 31 3 89 12 31 19 32 66 13z"/>
<path d="M905 3179 c-33 -11 -73 -26 -90 -33 -16 -8 -54 -21 -83 -31 -45 -14
-53 -20 -50 -38 2 -17 9 -21 28 -19 14 2 30 8 35 12 6 5 24 10 40 12 23 2 32
-2 41 -22 26 -54 23 -63 -36 -86 -53 -22 -73 -45 -50 -59 6 -4 52 9 103 28 51
19 113 43 140 52 32 12 47 23 47 36 0 22 -16 33 -32 22 -20 -12 -81 -33 -99
-33 -17 0 -46 71 -35 88 3 5 29 18 57 28 28 11 54 25 57 32 10 27 -14 30 -73
11z"/>
<path d="M8016 2945 c-34 -74 -33 -100 4 -137 27 -26 36 -30 70 -25 33 4 41 1
54 -19 17 -25 71 -40 105 -29 13 4 33 31 52 71 34 72 32 83 -24 105 -18 7 -66
28 -107 46 -120 55 -123 55 -154 -12z m81 -7 c52 -22 63 -36 48 -65 -7 -13
-23 -31 -34 -40 -20 -13 -24 -13 -46 1 -27 18 -32 50 -13 91 13 29 10 28 45
13z m151 -68 l33 -21 -18 -32 c-40 -68 -114 -31 -83 43 15 35 24 37 68 10z"/>
<path d="M925 2884 c-135 -62 -153 -75 -132 -92 11 -10 24 -8 58 8 61 27 92
26 109 -6 19 -34 7 -52 -58 -87 -54 -29 -57 -33 -44 -55 7 -10 19 -8 58 8 27
12 59 31 72 42 27 26 29 77 5 120 -11 18 -14 32 -8 35 37 13 90 51 90 63 0 27
-29 20 -150 -36z"/>
<path d="M7929 2748 c-7 -66 12 -89 117 -143 42 -22 78 -45 81 -51 4 -12 -23
-74 -32 -74 -7 0 -198 101 -212 113 -17 13 -45 1 -41 -19 2 -8 28 -29 58 -46
117 -65 204 -106 212 -102 16 10 76 141 70 151 -4 6 -46 31 -93 57 -91 49
-115 69 -121 101 -4 22 -37 34 -39 13z"/>
<path d="M1035 2640 c-83 -46 -105 -70 -105 -117 0 -109 88 -134 217 -63 78
43 93 61 93 110 0 63 -43 110 -100 109 -22 0 -62 -15 -105 -39z m142 -22 c43
-40 22 -77 -72 -127 -66 -35 -90 -38 -117 -14 -24 22 -23 55 5 81 18 17 142
82 156 82 3 0 15 -10 28 -22z"/>
<path d="M7742 2422 c-37 -64 -39 -76 -19 -80 8 -2 24 12 36 30 11 18 25 39
30 47 8 12 16 10 50 -12 23 -15 41 -29 41 -32 0 -2 -9 -19 -20 -37 -11 -18
-20 -41 -20 -50 0 -31 26 -19 49 22 26 46 39 49 76 17 l27 -23 -27 -48 c-18
-32 -24 -51 -17 -58 15 -15 27 -4 68 63 31 51 34 63 23 73 -31 29 -229 146
-246 146 -11 0 -30 -22 -51 -58z"/>
<path d="M1215 2365 c-55 -35 -106 -65 -112 -65 -7 0 -20 11 -29 25 -18 28
-32 32 -40 11 -7 -18 86 -166 105 -166 13 0 12 14 -4 66 -6 18 2 27 47 54 139
85 168 106 165 120 -5 29 -33 19 -132 -45z"/>
<path d="M7647 2273 c-15 -14 -5 -31 38 -62 25 -18 45 -39 45 -47 0 -17 -40
-74 -52 -74 -4 0 -30 16 -56 35 -37 26 -51 32 -60 23 -7 -7 -12 -15 -12 -19 0
-8 214 -167 236 -176 8 -3 17 3 21 13 6 17 -13 40 -67 75 l-25 16 28 42 c15
22 31 41 35 41 5 0 26 -13 48 -30 21 -16 47 -30 57 -30 30 0 18 34 -21 61 -20
15 -72 52 -115 83 -78 56 -88 61 -100 49z"/>
<path d="M1373 2243 c-7 -2 -13 -13 -13 -24 0 -16 7 -19 45 -19 47 0 65 -16
65 -59 0 -21 -73 -89 -127 -118 -27 -14 -35 -15 -57 -4 -31 17 -39 46 -22 80
27 54 -12 72 -43 20 -37 -61 18 -149 94 -149 33 0 53 9 107 50 102 77 119 113
79 174 -31 47 -84 67 -128 49z"/>
<path d="M7480 2041 c0 -11 21 -38 49 -61 45 -38 49 -46 53 -93 5 -57 1 -77
-14 -77 -5 0 -44 29 -86 65 -41 36 -79 65 -83 65 -3 0 -12 -7 -19 -15 -13 -16
-13 -15 135 -139 44 -36 87 -65 95 -63 12 2 15 18 15 74 0 39 3 74 7 78 4 4
20 -2 37 -14 29 -21 65 -19 58 3 -6 19 -216 196 -232 196 -8 0 -15 -9 -15 -19z"/>
<path d="M1545 2018 c-25 -14 -126 -97 -142 -118 -7 -8 -13 -34 -13 -56 0 -36
5 -47 35 -73 56 -49 92 -44 177 26 79 64 88 78 88 129 0 29 -7 43 -36 70 -37
36 -72 43 -109 22z m83 -50 c27 -27 14 -70 -35 -116 -66 -61 -95 -75 -127 -61
-48 22 -37 79 26 130 74 60 110 73 136 47z"/>
<path d="M7290 1830 c0 -6 14 -29 30 -52 17 -22 30 -45 30 -49 0 -4 -11 -20
-24 -36 l-24 -27 -41 37 c-42 38 -65 46 -77 26 -8 -14 195 -219 217 -219 9 0
35 20 58 45 31 34 41 53 41 78 0 41 -33 87 -63 87 -31 0 -44 11 -52 42 -4 15
-18 39 -32 53 -26 25 -63 34 -63 15z m138 -156 c26 -18 29 -60 5 -86 -22 -25
-35 -23 -66 10 -34 35 -34 45 -1 71 32 25 33 25 62 5z"/>
<path d="M1745 1822 c-27 -5 -65 -42 -65 -63 0 -32 -12 -49 -36 -49 -31 0 -64
-37 -64 -72 0 -20 14 -43 46 -78 26 -28 52 -50 59 -50 15 0 215 191 215 205 0
6 -20 31 -44 56 -43 46 -72 59 -111 51z m69 -63 c33 -26 33 -36 -1 -71 -33
-35 -46 -35 -72 -2 -25 32 -26 51 -4 76 21 24 44 23 77 -3z m-102 -108 l33
-30 -33 -33 -33 -33 -25 28 c-28 32 -31 59 -8 81 21 22 29 20 66 -13z"/>
<path d="M2952 1497 c-18 -30 -37 -64 -107 -192 -15 -27 -43 -79 -62 -114 -30
-53 -33 -65 -22 -76 13 -12 185 -100 242 -123 15 -6 27 -18 27 -25 0 -28 -60
-137 -76 -137 -22 0 -340 165 -454 235 -52 33 -132 85 -177 117 -45 32 -85 58
-90 58 -11 -1 -78 -95 -78 -111 0 -31 317 -231 558 -353 145 -73 345 -162 351
-155 3 5 115 288 146 372 21 57 21 59 3 72 -10 8 -24 15 -31 15 -7 0 -20 4
-30 10 -9 5 -56 27 -104 49 -56 25 -88 45 -88 55 0 20 60 136 70 136 4 0 50
-20 101 -44 135 -63 366 -146 504 -181 92 -24 94 -26 83 -78 -5 -23 -12 -55
-15 -70 -9 -46 -19 -46 -198 8 -49 15 -96 28 -103 29 -9 1 -34 -60 -73 -174
-94 -273 -90 -259 -71 -269 32 -16 218 -70 332 -96 63 -14 131 -30 150 -35 19
-4 80 -15 135 -24 55 -8 116 -17 135 -21 95 -15 425 -33 431 -24 7 11 19 250
19 375 l0 81 -155 13 -155 13 1 56 c1 31 4 67 8 80 l6 24 375 -1 375 0 7 -38
c4 -22 7 -57 7 -80 l1 -40 -117 -12 c-65 -7 -134 -13 -153 -15 l-34 -2 3 -225
c1 -124 6 -228 9 -232 9 -9 297 7 407 23 90 12 280 45 340 58 22 5 65 14 95
21 106 23 345 94 359 106 4 4 -139 426 -148 436 -4 4 -29 -1 -56 -11 -75 -27
-233 -66 -241 -59 -10 11 -41 133 -36 146 2 6 22 17 45 22 137 36 357 111 455
156 29 13 55 24 57 24 3 0 34 14 70 31 36 17 68 28 73 25 16 -9 65 -125 59
-139 -6 -15 -71 -48 -199 -102 -38 -15 -68 -31 -68 -35 0 -7 22 -66 40 -105 5
-11 34 -85 65 -165 31 -80 60 -149 65 -153 10 -11 124 37 324 136 176 87 299
159 478 279 l117 78 -19 32 c-11 18 -31 46 -44 62 l-24 29 -143 -95 c-202
-134 -541 -318 -585 -318 -16 0 -78 126 -68 141 3 5 66 39 140 76 73 37 134
71 134 76 0 5 -15 37 -34 71 -18 33 -66 121 -105 193 -40 73 -76 135 -80 137
-4 3 -59 -21 -122 -52 -128 -65 -361 -158 -489 -196 -47 -14 -98 -30 -115 -35
-16 -5 -67 -17 -113 -27 l-84 -19 5 -35 c2 -19 14 -84 26 -145 61 -298 57
-280 77 -277 41 7 103 21 186 42 47 13 93 20 101 17 15 -6 47 -91 47 -126 0
-11 -8 -24 -17 -30 -23 -11 -249 -67 -328 -80 -33 -6 -101 -17 -151 -25 -124
-21 -326 -38 -335 -29 -3 5 -10 40 -13 79 -8 82 -9 81 82 89 32 3 97 11 146
17 l88 11 -6 51 c-3 28 -12 94 -20 146 -8 52 -20 129 -26 170 -6 41 -16 80
-23 86 -8 8 -31 9 -77 3 -172 -23 -227 -27 -389 -28 -161 -2 -293 7 -434 29
-32 5 -64 7 -71 4 -8 -3 -16 -26 -19 -52 -3 -26 -13 -94 -22 -152 -9 -58 -20
-132 -24 -165 -5 -33 -10 -67 -12 -75 -4 -16 31 -23 200 -39 63 -6 107 -15
112 -23 9 -13 0 -139 -10 -150 -13 -14 -250 13 -491 56 -110 20 -322 75 -334
86 -5 5 -1 39 10 80 l18 72 41 -5 c22 -2 74 -13 116 -25 41 -11 96 -23 121
-27 l46 -7 11 59 c23 121 43 217 66 327 9 38 14 70 13 71 -2 1 -39 10 -83 19
-244 55 -508 150 -727 262 -113 58 -114 58 -136 21z"/>
</g>
</svg>
